<?xml version="1.0" standalone="no"?>
<!DOCTYPE svg PUBLIC "-//W3C//DTD SVG 20010904//EN"
 "http://www.w3.org/TR/2001/REC-SVG-20010904/DTD/svg10.dtd">
<svg version="1.0" xmlns="http://www.w3.org/2000/svg"
 width="180.000000pt" height="180.000000pt" viewBox="0 0 180.000000 180.000000"
 preserveAspectRatio="xMidYMid meet">

<g transform="translate(0.000000,180.000000) scale(0.100000,-0.100000)"
fill="#000000" stroke="none">
<path d="M784 1790 c-34 -5 -80 -14 -103 -20 l-41 -11 20 -27 c11 -15 27 -61
36 -102 30 -142 -2 -302 -122 -620 -87 -231 -114 -329 -114 -420 0 -127 44
-224 140 -314 104 -96 238 -146 390 -146 107 0 179 18 298 75 157 75 243 187
288 373 47 197 -38 764 -150 1008 l-34 73 -94 45 c-51 25 -131 54 -178 66 -99
23 -249 32 -336 20z m150 -757 c2 -10 12 -69 22 -131 9 -62 18 -112 19 -110 2
2 26 59 53 128 l50 125 51 3 c28 2 51 -1 51 -5 0 -5 -40 -96 -89 -203 l-88
-195 -44 -3 -44 -3 -41 198 c-23 109 -40 201 -37 206 2 4 24 7 48 7 33 0 45
-4 49 -17z m449 -22 c30 -29 30 -98 1 -138 -20 -27 -20 -29 -2 -58 63 -104
-69 -228 -182 -170 -30 16 -60 51 -60 71 0 7 16 18 36 24 32 11 38 10 55 -9
11 -12 24 -21 29 -21 19 0 41 34 38 59 -2 20 -9 27 -30 29 -29 3 -33 16 -22
60 4 15 14 22 30 22 33 0 54 44 33 66 -14 13 -18 13 -40 -5 -25 -19 -25 -19
-57 1 -18 11 -32 23 -32 27 0 9 38 44 65 60 31 18 113 8 138 -18z"/>
<path d="M396 1640 c-85 -58 -206 -182 -254 -263 -53 -88 -99 -205 -118 -296
-25 -127 -16 -327 21 -441 78 -245 239 -433 460 -540 224 -109 456 -125 685
-47 561 192 785 863 452 1354 -36 53 -72 93 -72 81 0 -3 9 -31 21 -64 70 -202
124 -619 100 -779 -24 -163 -83 -285 -191 -396 -150 -153 -441 -239 -660 -195
-314 64 -530 297 -530 571 0 110 40 258 155 570 48 131 66 220 68 330 2 94
-14 146 -47 158 -9 4 -47 -15 -90 -43z"/>
</g>
</svg>
